<svg width="19" height="19" viewBox="0 0 19 19" fill="none" xmlns="http://www.w3.org/2000/svg">
<path d="M12.5808 5.41921C12.0217 4.86024 11.1154 4.86027 10.5564 5.41927L5.77641 10.1995C5.61388 10.3621 5.49964 10.5665 5.4464 10.7901L5.00816 12.6305C4.98404 12.7319 5.01421 12.8385 5.08787 12.9121C5.16154 12.9858 5.26815 13.016 5.36949 12.9918L7.21 12.5537C7.43368 12.5004 7.63819 12.3861 7.80077 12.2235L12.5808 7.44327C13.1397 6.88432 13.1397 5.97813 12.5808 5.41921ZM10.9807 5.84348C11.3054 5.5188 11.8318 5.51878 12.1565 5.84344C12.4811 6.16808 12.4812 6.69441 12.1565 7.01906L11.8 7.37562L10.6243 6.19996L10.9807 5.84348ZM10.2 6.62422L11.3758 7.79988L7.37648 11.7993C7.29242 11.8834 7.18668 11.9425 7.07102 11.97L5.70476 12.2953L6.03009 10.9291C6.05761 10.8134 6.11667 10.7078 6.2007 10.6237L10.2 6.62422Z" fill="#0A2239"/>
<rect x="0.75" y="0.75" width="17.5" height="17.5" rx="8.75" stroke="#0A2239" stroke-width="1.5"/>
<path d="M9 12.5H12" stroke="#0A2239" stroke-linecap="round"/>
</svg>
